<?xml version="1.0" encoding="UTF-8"?>
<svg id="Layer_1" xmlns="http://www.w3.org/2000/svg" version="1.1" viewBox="0 0 80 80" width="80" height="80">
  <defs>
    <style>
      .st3 { fill: #0f4c75; }
      .st-white { fill: #ffffff; }
    </style>
  </defs>
  <rect class="st3" x="0" y="0" width="80" height="80" rx="16" ry="16"/>
  <g transform="translate(-18, 222) scale(0.8)">
    <path class="st-white" d="M46.62-172.03c-1.15,0-1.91-.68-2.26-2.04-.09-.33-.13-1.02-.13-2.08,0-2.6.48-5.95,1.44-10.05.96-4.1,2.71-8.79,5.26-14.09-1.15-.09-2.23-.13-3.24-.13-4.23,0-7.22.58-8.96,1.73-.89.59-1.56,1.17-2.02,1.73-.46.56-.85,1.23-1.18,2-.18.41-.65.62-1.42.62s-1.15-.34-1.15-1.02c0-.15.02-.27.04-.35.83-3.34,2.48-5.64,4.97-6.9,2.49-1.26,5.87-1.89,10.16-1.89,1.78,0,4.83-.12,9.1.4,5.64.69,12.57,4.2,19.36,4.27,13.95.14,27.46-3.87,29.07-3.87,1.09,0,1.67.38,1.73,1.15,0,1.15-.59,1.89-1.77,2.22-1.04.3-3.26.64-5.86,1.22-1.64.36-14.1,2.82-23.21,2.79-6.98-.02-15.6-4.19-22.55-3.79-3.25,9.14-4.88,17.04-4.88,23.69v.98c0,2.28-.83,3.42-2.49,3.42Z"/>
    <path class="st-white" d="M55.54-180.51c0-2.66.95-5.04,2.86-7.12,1.91-2.09,3.94-3.13,6.1-3.13,1.21,0,1.82.31,1.82.93v.27h1.02c.83,0,1.24.38,1.24,1.15v.27l-1.24,7.63c-.03.12-.04.28-.04.49,0,.71.25,1.06.75,1.06,1.12,0,2.46-.99,3.99-2.97.21-.27.41-.4.62-.4.3,0,.55.23.75.69.21.46.31.86.31,1.2s-.03.6-.09.78c-.68.95-1.57,1.81-2.66,2.6-1.09.78-2.14,1.18-3.13,1.18s-1.76-.26-2.31-.78c-.55-.52-.88-1.22-1-2.11v.09c-.5.95-1.17,1.69-2,2.22-.86.53-1.88.8-3.06.8s-2.14-.45-2.86-1.35-1.09-2.06-1.09-3.48ZM60.55-178.78c.8,0,1.56-.44,2.29-1.33s1.22-1.86,1.49-2.93l1.2-4.97c-1.72,0-3.25.81-4.61,2.44-1.36,1.63-2.04,3.17-2.04,4.62s.56,2.17,1.69,2.17Z"/>
  </g>
</svg>