<?xml version="1.0" encoding="UTF-8"?>
<svg id="Layer_1" xmlns="http://www.w3.org/2000/svg" version="1.1" viewBox="30 -14 100 36">
  <defs>
    <style>
      .st2 { fill: #0f4c75; }
    </style>
  </defs>
  <g transform="translate(0, 190)">
    <path class="st2" d="M46.62-172.03c-1.15,0-1.91-.68-2.26-2.04-.09-.33-.13-1.02-.13-2.08,0-2.6.48-5.95,1.44-10.05.96-4.1,2.71-8.79,5.26-14.09-1.15-.09-2.23-.13-3.24-.13-4.23,0-7.22.58-8.96,1.73-.89.59-1.56,1.17-2.02,1.73-.46.56-.85,1.23-1.18,2-.18.41-.65.62-1.42.62s-1.15-.34-1.15-1.02c0-.15.02-.27.04-.35.83-3.34,2.48-5.64,4.97-6.9,2.49-1.26,5.87-1.89,10.16-1.89,1.78,0,4.83-.12,9.1.4,5.64.69,12.57,4.2,19.36,4.27,13.95.14,27.46-3.87,29.07-3.87,1.09,0,1.67.38,1.73,1.15,0,1.15-.59,1.89-1.77,2.22-1.04.3-3.26.64-5.86,1.22-1.64.36-14.1,2.82-23.21,2.79-6.98-.02-15.6-4.19-22.55-3.79-3.25,9.14-4.88,17.04-4.88,23.69v.98c0,2.28-.83,3.42-2.49,3.42Z"/>
    <path class="st2" d="M55.54-180.51c0-2.66.95-5.04,2.86-7.12,1.91-2.09,3.94-3.13,6.1-3.13,1.21,0,1.82.31,1.82.93v.27h1.02c.83,0,1.24.38,1.24,1.15v.27l-1.24,7.63c-.03.12-.04.28-.04.49,0,.71.25,1.06.75,1.06,1.12,0,2.46-.99,3.99-2.97.21-.27.41-.4.62-.4.3,0,.55.23.75.69.21.46.31.86.31,1.2s-.03.6-.09.78c-.68.95-1.57,1.81-2.66,2.6-1.09.78-2.14,1.18-3.13,1.18s-1.76-.26-2.31-.78c-.55-.52-.88-1.22-1-2.11v.09c-.5.95-1.17,1.69-2,2.22-.86.53-1.88.8-3.06.8s-2.14-.45-2.86-1.35-1.09-2.06-1.09-3.48ZM60.55-178.78c.8,0,1.56-.44,2.29-1.33s1.22-1.86,1.49-2.93l1.2-4.97c-1.72,0-3.25.81-4.61,2.44-1.36,1.63-2.04,3.17-2.04,4.62s.56,2.17,1.69,2.17Z"/>
    <path class="st2" d="M94.99-183.44c-1.15,2.66-2.66,4.76-4.53,6.3-1.48,1.21-2.99,1.82-4.53,1.82-2.04,0-3.3-1.21-3.77-3.64-1.51,2.37-3.24,3.55-5.19,3.55-1.45,0-2.61-.5-3.48-1.49s-1.31-2.32-1.31-3.99.37-3.25,1.11-4.73c.35-.71.67-1.3.93-1.78.27-.47.58-.97.93-1.49.36-.52.55-.79.58-.82.5-.74,1.02-1.11,1.55-1.11s.97.16,1.31.47.51.56.51.75-.03.35-.09.47c-.33.38-.57.7-.73.93-.16.24-.36.52-.6.84-1.42,2.07-2.13,4.11-2.13,6.12,0,1.89.58,2.84,1.73,2.84,1.48,0,3.09-2,4.84-5.99l.71-1.6c.71-2.63,1.48-3.95,2.31-3.95h.13c1.03,0,1.55.33,1.55.98,0,.47-.36,1.45-1.07,2.93-.92,1.92-1.38,3.62-1.38,5.1,0,1.77.61,2.66,1.82,2.66.98,0,1.97-.5,2.97-1.49,1-.99,1.83-2.21,2.48-3.66.12-.18.27-.44.44-.8-1.07-.53-1.9-1.26-2.51-2.17-.61-.92-.91-1.87-.91-2.86s.35-1.83,1.04-2.53,1.68-1.04,2.95-1.04c1.07.06,1.92.48,2.55,1.26.64.78.95,1.74.95,2.86s-.12,2.1-.36,2.93c1.24-.06,2.68-.36,4.3-.89.24-.15.48-.22.73-.22s.48.13.69.38c.21.25.31.58.31,1s-.22.7-.67.84c-1.95.83-3.79,1.24-5.5,1.24l-.71-.04ZM91.39-188.76c0,1.06.55,1.89,1.64,2.48.35-1,.53-1.82.53-2.44,0-1.06-.34-1.6-1.02-1.6-.33,0-.6.16-.82.47-.22.31-.33.67-.33,1.09Z"/>
    <path class="st2" d="M102.57-175.76c-1.48,0-2.62-.6-3.42-1.8-.8-1.2-1.2-2.83-1.2-4.9,0-.62.01-1.09.04-1.42.38-4.29,1.51-8.76,3.37-13.4.92-2.22,2.06-4.06,3.42-5.52,1.36-1.46,2.8-2.2,4.3-2.2.89,0,1.6.29,2.13.86.53.58.8,1.29.8,2.15v.36c-.3,2.99-1.51,6.11-3.64,9.36-2.13,3.25-4.48,5.89-7.06,7.9-.12.95-.18,1.67-.18,2.17,0,2.4.71,3.59,2.13,3.59s3.12-1.04,4.93-3.11c.21-.21.47-.31.78-.31s.61.13.89.38c.28.25.42.56.42.93s-.18.75-.53,1.13c-2.25,2.54-4.64,3.82-7.19,3.82ZM107.99-201.36c-1.24,0-2.49,1.58-3.75,4.75s-2.11,6.17-2.55,9.01c1.75-1.95,3.35-4.17,4.81-6.66,1.46-2.48,2.21-4.55,2.24-6.21,0-.59-.25-.89-.75-.89Z"/>
    <path class="st2" d="M107.67-180.51c0-2.66.95-5.04,2.86-7.12,1.91-2.09,3.94-3.13,6.1-3.13,1.21,0,1.82.31,1.82.93v.27h1.02c.83,0,1.24.38,1.24,1.15v.27l-1.24,7.63c-.03.12-.04.28-.04.49,0,.71.25,1.06.75,1.06,1.12,0,2.46-.99,3.99-2.97.21-.27.41-.4.62-.4.3,0,.55.23.75.69.21.46.31.86.31,1.2s-.03.6-.09.78c-.68.95-1.57,1.81-2.66,2.6-1.09.78-2.14,1.18-3.13,1.18s-1.76-.26-2.31-.78c-.55-.52-.88-1.22-1-2.11v.09c-.5.95-1.17,1.69-2,2.22-.86.53-1.88.8-3.06.8s-2.14-.45-2.86-1.35-1.09-2.06-1.09-3.48ZM112.69-178.78c.8,0,1.56-.44,2.29-1.33s1.22-1.86,1.49-2.93l1.2-4.97c-1.72,0-3.25.81-4.61,2.44-1.36,1.63-2.04,3.17-2.04,4.62s.56,2.17,1.69,2.17Z"/>
  </g>
</svg>